
<svg version="1.0" xmlns="http://www.w3.org/2000/svg"
 width="4000.000000pt" height="4000.000000pt" viewBox="0 0 4000.000000 4000.000000"
 preserveAspectRatio="xMidYMid meet">

<g transform="translate(0.000000,4000.000000) scale(0.100000,-0.100000)"
fill="#000000" stroke="none">
<path d="M24515 31720 c-364 -25 -649 -111 -832 -252 -117 -89 -193 -221 -194
-336 -1 -67 16 -109 52 -127 47 -25 80 -17 189 45 122 70 178 92 286 115 282
59 809 2 1118 -121 95 -39 206 -100 206 -114 0 -10 -77 -26 -164 -34 -32 -3
-169 -8 -305 -11 -640 -13 -768 -16 -796 -20 -16 -2 -66 -6 -110 -10 -327 -25
-674 -122 -969 -273 -182 -92 -242 -169 -201 -256 40 -83 152 -120 695 -230
164 -33 307 -69 317 -80 3 -2 -42 -19 -99 -36 -217 -66 -325 -104 -407 -146
-184 -93 -291 -221 -291 -349 0 -91 52 -159 186 -239 102 -62 144 -94 144
-110 0 -23 -81 -94 -207 -182 -68 -47 -139 -101 -158 -119 -66 -67 -64 -150 7
-193 18 -12 94 -37 168 -57 147 -40 210 -67 210 -91 0 -27 -28 -70 -116 -180
-121 -152 -141 -197 -135 -305 2 -45 58 -114 141 -175 44 -32 80 -62 80 -65 0
-3 -19 -11 -42 -18 -63 -19 -189 -87 -237 -127 -159 -136 -170 -330 -31 -515
101 -134 279 -261 805 -573 557 -330 810 -512 1093 -790 266 -260 431 -504
581 -862 55 -132 163 -452 158 -468 -2 -6 -27 32 -57 84 -144 258 -356 585
-502 778 -458 605 -878 822 -1543 799 -707 -25 -1339 -251 -1885 -673 -151
-116 -469 -435 -602 -602 -373 -468 -710 -1078 -1029 -1859 -30 -73 -55 -128
-57 -123 -4 12 35 229 59 325 118 469 351 914 765 1466 174 232 358 460 724
899 514 617 647 792 723 949 67 137 59 230 -23 273 -69 36 -169 19 -355 -62
-63 -28 -118 -50 -124 -50 -40 0 13 279 96 500 46 123 110 252 206 418 43 72
85 151 93 175 31 87 14 174 -44 230 -59 56 -213 114 -402 152 -47 9 -102 21
-123 26 l-38 10 21 37 c12 20 53 80 91 133 171 239 160 322 -51 364 -136 28
-160 47 -160 127 0 67 26 154 75 253 55 113 114 180 219 249 104 70 118 85
114 127 -5 53 -36 67 -181 84 -136 16 -217 33 -217 45 0 15 90 89 137 113 26
14 87 37 134 51 96 29 119 48 119 94 0 64 -10 66 -459 77 -203 5 -368 16 -446
30 -78 15 -125 28 -125 35 0 25 202 133 505 270 375 169 502 242 540 312 18
35 19 38 3 72 -29 60 -97 82 -282 91 -55 3 -148 7 -205 10 -57 2 -106 6 -108
8 -6 7 162 48 277 68 138 23 373 46 565 54 361 14 448 21 510 37 65 17 96 37
112 75 13 32 13 40 -2 78 -8 24 -25 51 -35 60 -11 10 -20 21 -20 25 0 4 39 10
87 14 239 20 483 85 561 151 63 53 67 135 9 179 -59 45 -127 58 -324 63 -754
21 -1455 -217 -2298 -780 -1239 -827 -2156 -2038 -2631 -3473 -170 -513 -314
-1161 -379 -1704 -25 -212 -42 -378 -50 -500 -4 -52 -8 -106 -11 -120 -7 -48
-19 -447 -19 -665 0 -221 12 -634 20 -658 2 -6 6 -57 10 -112 7 -116 8 -131
35 -370 31 -276 79 -526 115 -594 18 -36 43 -51 84 -51 24 0 36 7 51 32 26 43
33 96 45 353 9 186 35 604 40 660 29 298 39 385 61 540 39 276 43 283 38 60
-2 -110 -6 -243 -9 -295 -8 -175 -20 -991 -19 -1330 1 -428 14 -511 86 -541
38 -15 67 -6 106 34 62 64 104 179 506 1407 162 494 302 895 291 835 -61 -355
-105 -747 -112 -988 -7 -234 2 -292 48 -332 106 -88 190 23 464 610 134 289
328 686 332 682 4 -4 -278 -659 -445 -1032 -272 -612 -431 -923 -607 -1190
-201 -305 -368 -468 -612 -600 -314 -170 -382 -291 -583 -1045 -203 -763 -358
-1230 -595 -1794 -186 -445 -176 -428 -426 -761 -335 -448 -679 -920 -870
-1192 -35 -50 -67 -89 -70 -85 -18 20 -59 250 -52 293 2 12 88 130 191 263
357 457 561 738 626 861 59 112 6 192 -97 147 -58 -26 -201 -147 -323 -274
-328 -341 -502 -634 -527 -888 -4 -39 -20 -66 -115 -192 -321 -426 -553 -849
-862 -1568 -114 -267 -276 -676 -365 -920 -36 -102 -78 -202 -92 -224 -43 -66
-100 -122 -335 -328 -125 -109 -236 -212 -248 -227 -37 -53 -14 -131 39 -131
57 0 168 79 334 238 61 59 108 102 104 96 -12 -21 -116 -391 -145 -519 -100
-435 -94 -739 18 -894 16 -22 26 -42 22 -44 -4 -3 -151 -46 -327 -95 -1174
-332 -1653 -439 -2185 -487 -239 -21 -271 -24 -375 -30 -618 -40 -879 -109
-1548 -404 -329 -146 -517 -224 -724 -302 -430 -161 -1040 -338 -1843 -535
-190 -46 -475 -116 -635 -155 -302 -74 -454 -118 -517 -150 -71 -36 -88 -94
-42 -148 l26 -31 -27 0 c-66 0 -248 -34 -334 -62 -106 -35 -216 -102 -274
-167 -110 -122 -173 -252 -423 -871 -67 -168 -142 -350 -165 -405 -36 -85 -43
-111 -43 -170 -1 -38 3 -80 7 -93 l8 -22 -2175 0 -2176 0 0 -65 0 -65 848 0
c466 0 1481 -3 2255 -7 l1408 -6 97 -33 c142 -49 329 -79 722 -119 25 -2 101
-7 170 -10 69 -3 139 -8 155 -10 17 -2 131 -7 255 -10 124 -4 232 -9 240 -11
17 -6 2648 -6 2658 0 4 2 243 7 532 10 289 4 557 9 595 11 39 2 232 7 430 11
198 3 392 7 430 9 39 2 219 6 400 10 182 3 359 8 395 10 36 2 187 6 335 10
149 3 324 8 390 10 66 2 233 7 370 10 138 3 295 7 350 10 55 3 186 7 290 10
182 5 337 10 640 20 77 3 226 7 330 10 105 3 242 8 305 10 63 3 180 7 260 10
311 11 395 18 421 31 47 24 46 89 0 114 -10 5 -97 12 -192 14 -96 3 -2512 8
-5369 12 l-5195 6 -27 26 c-52 48 -47 94 29 267 19 44 94 226 165 405 257 639
327 764 479 853 88 52 231 89 403 104 156 15 837 7 1131 -12 22 -2 121 -6 220
-10 99 -4 198 -9 220 -10 142 -10 610 -20 950 -20 443 0 716 11 1035 40 229
21 520 51 826 84 197 22 391 43 429 46 39 3 84 8 100 10 17 2 82 7 145 11 63
3 122 8 130 9 8 2 101 6 205 10 l190 7 240 -42 c132 -22 368 -66 525 -96 591
-115 647 -125 717 -131 67 -5 73 -4 97 20 49 49 27 100 -59 137 -64 27 -236
75 -413 114 -307 68 -609 107 -932 121 -80 4 -217 17 -305 30 -88 13 -216 31
-285 40 -69 8 -141 18 -160 20 -279 36 -607 57 -946 58 -592 3 -774 -12 -2014
-168 -52 -6 -308 -34 -365 -40 -70 -7 -188 -15 -335 -25 -130 -8 -900 -6 -935
3 -11 2 -60 8 -109 12 -48 4 -84 10 -80 15 12 11 231 68 549 144 715 171 1046
256 1480 381 602 173 904 283 1500 545 580 255 766 319 1075 369 135 21 190
28 290 36 36 3 117 9 180 14 63 6 151 13 195 16 708 53 1090 134 2513 536 252
71 448 121 485 124 34 2 125 9 202 15 212 16 262 19 355 25 47 3 119 7 160 10
41 3 118 7 170 10 52 3 133 7 180 10 283 16 337 19 515 30 44 3 112 7 150 10
349 22 474 32 945 75 118 11 240 22 270 25 l55 5 -60 -20 c-172 -57 -647 -159
-905 -196 -318 -45 -483 -61 -895 -89 -104 -7 -331 -19 -585 -30 -286 -12
-359 -16 -415 -20 -33 -2 -98 -7 -145 -10 -198 -14 -279 -48 -280 -117 -1 -84
138 -139 510 -202 243 -41 493 -65 940 -91 494 -28 664 -68 775 -182 66 -68
38 -103 -82 -103 -94 0 -240 23 -558 90 -559 117 -720 139 -1060 146 -362 8
-513 -19 -552 -101 -25 -52 -11 -96 48 -149 66 -59 177 -112 524 -249 427
-169 603 -249 785 -359 328 -199 587 -492 804 -909 77 -148 108 -238 120 -354
4 -33 9 -78 11 -100 2 -22 7 -74 10 -115 47 -632 146 -941 334 -1043 136 -75
372 -118 776 -142 55 -3 120 -8 145 -10 25 -2 122 -7 215 -10 94 -3 224 -8
290 -10 66 -2 260 -7 430 -10 171 -3 402 -7 515 -10 194 -4 566 -7 2715 -21
495 -3 4866 -8 9713 -11 l8812 -6 0 67 0 66 -2247 0 c-1237 0 -3816 2 -5733 5
-1917 3 -5278 7 -7470 10 -2192 3 -4115 8 -4275 10 -159 2 -627 7 -1040 10
-412 3 -793 8 -845 10 -52 3 -243 7 -425 11 -181 3 -348 7 -370 9 -22 2 -113
6 -202 10 -89 3 -179 8 -200 10 -21 2 -78 6 -128 10 -132 9 -317 33 -422 54
-123 26 -205 64 -252 117 -92 105 -158 372 -196 799 -38 426 -49 485 -131 648
-191 381 -436 694 -700 894 -189 144 -469 288 -851 438 -484 191 -611 248
-606 271 4 18 74 26 283 29 335 6 552 -21 1116 -139 408 -85 502 -99 633 -94
90 3 113 7 150 28 116 64 113 200 -6 311 -61 56 -103 82 -185 113 -143 54
-365 82 -793 101 -71 4 -146 8 -165 10 -19 2 -75 7 -125 10 -245 17 -758 96
-740 113 8 8 13 9 170 16 77 4 167 9 200 11 33 2 128 7 210 10 368 14 749 38
1033 66 562 54 1111 164 1522 304 214 73 280 124 251 194 -7 15 -24 33 -37 40
-39 17 -177 13 -465 -14 -513 -48 -585 -55 -654 -60 -232 -18 -441 -33 -560
-40 -55 -3 -131 -7 -170 -10 -38 -3 -110 -7 -160 -10 -132 -8 -251 -15 -330
-20 -38 -2 -133 -7 -210 -10 l-140 -5 90 25 c413 113 1225 261 1865 340 113
14 221 27 240 30 61 8 422 44 505 50 44 4 96 8 115 10 192 20 874 28 1067 13
196 -16 479 -67 646 -117 123 -37 235 -80 244 -94 13 -21 -58 -61 -432 -247
-209 -104 -427 -216 -485 -249 -68 -39 -193 -94 -355 -156 -993 -382 -1321
-609 -1559 -1079 -195 -386 -264 -968 -155 -1321 26 -87 85 -205 148 -299 60
-88 79 -105 125 -113 69 -11 110 40 141 177 54 241 126 395 241 519 62 68 34
58 389 131 413 84 846 147 1225 176 309 24 1107 23 1261 -1 13 -2 65 -6 114
-9 50 -4 131 -11 180 -17 50 -5 108 -12 130 -14 304 -33 762 -100 1215 -175
329 -56 421 -72 665 -115 442 -79 1103 -191 1355 -231 52 -8 122 -19 155 -24
138 -23 563 -80 735 -100 102 -11 203 -23 225 -25 22 -3 121 -11 220 -20 99
-8 205 -17 235 -19 30 -3 105 -8 165 -11 61 -3 124 -8 140 -10 78 -11 515 -20
945 -20 741 0 1080 21 1128 69 22 21 18 77 -7 97 -24 19 -80 26 -271 34 -74 3
-178 7 -230 10 -52 2 -147 7 -210 10 -63 3 -144 8 -180 10 -36 3 -141 9 -235
15 -93 6 -186 12 -205 15 -19 2 -71 6 -115 10 -81 6 -437 41 -510 50 -282 35
-587 78 -804 116 -339 58 -520 92 -1056 201 -1732 350 -2119 419 -2760 492
-686 78 -1485 102 -2020 61 -33 -3 -96 -7 -140 -10 -772 -57 -1380 -225 -1685
-466 -47 -37 -66 -45 -142 -59 -48 -9 -120 -18 -159 -19 l-72 -2 63 117 c195
368 504 800 833 1163 231 255 534 509 767 644 77 44 1308 500 1950 722 931
321 1575 496 1995 540 33 4 71 8 85 11 53 9 390 12 490 3 440 -36 1105 -225
1860 -527 467 -187 788 -337 1600 -746 1588 -799 1792 -895 2290 -1081 599
-224 1066 -333 1980 -460 156 -22 235 -43 258 -69 10 -11 29 -47 42 -78 28
-73 102 -202 191 -335 39 -57 72 -110 75 -117 3 -9 -16 -25 -52 -46 -114 -64
-224 -205 -224 -286 0 -69 43 -114 109 -114 47 0 149 43 247 103 144 90 182
145 150 220 l-14 35 34 6 c136 26 323 30 1729 41 358 2 673 6 700 9 28 3 115
7 195 11 80 3 163 8 185 10 22 2 78 7 125 10 480 32 1100 128 1525 237 577
146 843 304 1057 628 112 169 180 361 223 635 11 68 14 504 4 610 -82 878
-495 2252 -1064 3540 -533 1205 -1210 2386 -1614 2817 -71 75 -169 159 -219
187 -13 7 -2 26 61 102 41 52 129 153 193 224 199 220 238 297 238 465 0 92
-4 117 -33 200 -112 332 -425 681 -680 760 -35 11 -114 29 -175 40 -192 35
-264 62 -381 145 -168 119 -300 302 -691 955 -462 774 -617 995 -883 1261
-312 311 -634 503 -1061 632 -165 50 -262 68 -354 66 -91 -2 -70 8 -341 -172
-212 -141 -341 -243 -483 -382 -142 -138 -204 -211 -295 -348 -236 -352 -353
-806 -385 -1482 -13 -283 -5 -1194 13 -1381 1 -18 6 -131 10 -251 4 -120 9
-227 12 -238 9 -40 11 -1164 2 -1305 -56 -947 -187 -1488 -684 -2835 -171
-464 -242 -674 -284 -846 -73 -296 -77 -547 -16 -872 14 -77 76 -322 90 -358
5 -14 -8 -17 -102 -23 -59 -4 -130 -9 -158 -11 -27 -2 -97 -7 -155 -10 -58 -3
-141 -8 -185 -11 l-80 -6 3 45 c9 112 -64 235 -203 344 -165 131 -244 150
-665 168 -69 2 -192 8 -275 11 -82 3 -157 7 -165 9 -8 1 -71 6 -140 11 -69 5
-132 9 -140 10 -8 0 -34 2 -58 3 l-43 1 73 59 c105 84 248 235 301 317 112
174 219 505 281 874 14 85 31 182 37 215 13 70 13 53 0 181 -11 104 -33 173
-70 211 -94 99 -245 66 -341 -74 -17 -26 -73 -44 -66 -22 12 35 67 378 81 499
17 148 20 367 7 501 -18 176 -117 304 -251 322 -25 4 -92 -6 -122 -18 -14 -5
-17 4 -21 59 -4 42 -16 87 -35 128 -62 133 -140 183 -272 176 -163 -9 -308
-95 -706 -418 -276 -224 -479 -343 -1010 -590 -33 -15 -109 -51 -170 -80 -662
-313 -824 -369 -1063 -370 -86 -1 -138 4 -193 19 -83 21 -187 69 -209 96 -13
16 -11 21 17 44 18 15 92 58 165 96 166 85 272 150 441 269 72 51 212 145 309
209 253 166 363 281 453 469 19 40 35 78 35 85 0 20 19 15 69 -17 68 -43 174
-89 260 -112 99 -27 358 -33 516 -13 504 65 1079 312 1512 651 34 27 101 74
149 104 101 64 241 192 299 275 54 76 85 115 94 115 4 0 19 -26 35 -57 84
-175 320 -537 384 -590 34 -29 76 -29 103 -2 40 40 32 68 -137 479 -26 63 -71
180 -100 260 l-52 145 307 310 c511 516 726 776 830 1007 60 132 117 359 141
563 6 50 12 106 15 125 2 19 7 69 10 110 3 41 8 91 10 110 2 19 7 78 10 130 3
52 8 115 10 140 2 25 7 108 11 185 3 77 8 147 9 155 2 8 6 98 10 200 4 102 9
192 10 200 2 8 6 110 10 225 4 116 8 235 11 265 6 95 19 863 19 1155 0 301
-13 974 -19 1015 -3 14 -7 93 -10 175 -4 83 -9 168 -11 190 -3 22 -7 78 -10
125 -6 96 -9 124 -30 335 -9 83 -18 156 -20 163 -2 6 0 12 5 12 17 0 143 -409
214 -695 125 -501 218 -1141 251 -1740 4 -60 10 -175 15 -255 8 -150 6 -1366
-3 -1410 -3 -14 -8 -92 -12 -174 -4 -82 -8 -158 -10 -170 -2 -11 -6 -68 -10
-126 -3 -58 -8 -125 -10 -150 -3 -25 -9 -97 -15 -160 -6 -63 -13 -133 -15
-155 -3 -22 -12 -103 -20 -180 -41 -374 -115 -840 -201 -1265 -180 -891 -443
-1788 -752 -2570 -77 -195 -158 -409 -180 -476 -78 -237 -110 -437 -117 -739
-6 -293 9 -365 74 -365 66 0 80 34 106 260 52 463 76 564 189 789 137 272 226
498 416 1051 247 722 338 973 430 1194 50 119 116 252 129 261 18 11 26 -69
25 -250 -3 -425 -114 -924 -354 -1590 -32 -88 -114 -311 -183 -495 -274 -734
-364 -1052 -410 -1435 -26 -217 -17 -265 53 -267 46 -1 66 27 74 104 29 260
80 535 132 705 63 208 135 373 369 843 223 450 341 726 445 1044 151 463 209
818 245 1511 8 141 23 788 26 1100 1 132 3 283 5 335 14 538 9 1688 -10 2045
-3 66 -8 158 -11 205 -2 47 -7 137 -10 200 -3 63 -8 135 -10 160 -2 25 -7 81
-10 125 -61 856 -212 1780 -426 2605 -265 1021 -662 2049 -1082 2805 -27 50
-61 110 -74 135 -34 60 344 -319 512 -515 572 -667 877 -1251 1290 -2477 65
-191 126 -361 136 -377 32 -53 109 -38 125 23 16 64 -170 801 -342 1353 -272
875 -589 1580 -999 2221 l-76 117 55 -57 c250 -262 564 -726 772 -1140 116
-232 538 -1483 775 -2296 44 -152 87 -285 96 -294 25 -28 79 -23 99 8 16 23
16 34 4 107 -7 45 -35 177 -61 292 -27 116 -49 212 -49 215 0 3 17 -26 38 -65
77 -144 130 -205 176 -205 32 0 64 26 71 59 6 29 8 27 130 -102 207 -222 428
-416 925 -817 613 -494 866 -716 1394 -1225 386 -372 1022 -1029 1155 -1194
366 -456 644 -769 739 -835 51 -35 99 -37 124 -6 25 31 23 59 -11 111 -53 85
-328 392 -696 779 -81 85 -220 245 -309 355 -424 527 -798 963 -1430 1670
-554 619 -645 721 -852 960 -635 733 -1044 1273 -1647 2175 l-117 175 -109
320 c-462 1352 -674 1840 -1044 2408 -420 643 -1050 1345 -1572 1752 -460 359
-930 574 -1445 664 -229 39 -479 55 -675 41z m580 -159 c535 -86 997 -292
1450 -644 400 -311 871 -804 1256 -1312 431 -571 676 -1022 961 -1775 134
-354 313 -859 299 -845 -8 9 -141 210 -409 620 -81 123 -95 154 -253 545 -389
967 -617 1436 -840 1730 -91 120 -155 170 -220 170 -77 0 -115 -72 -98 -182
42 -264 386 -905 1024 -1908 168 -264 188 -303 281 -550 29 -75 28 -74 -56 45
-231 327 -532 652 -941 1016 -58 52 -150 144 -204 204 -140 157 -565 579 -733
728 -258 228 -434 362 -492 373 -37 8 -76 -15 -82 -50 -10 -49 29 -104 184
-263 186 -189 327 -316 744 -668 375 -317 403 -344 556 -535 551 -690 976
-1494 1302 -2459 48 -140 85 -256 83 -257 -2 -2 -19 31 -37 74 -214 492 -498
960 -824 1356 -197 240 -529 584 -946 981 -72 69 -142 148 -188 212 -514 721
-1317 1421 -2076 1812 -129 66 -180 66 -201 2 -15 -48 9 -70 331 -318 291
-224 464 -375 1080 -934 220 -200 502 -456 627 -568 214 -193 232 -212 303
-319 849 -1286 1530 -3316 1739 -5187 3 -27 8 -66 10 -85 10 -72 35 -331 50
-520 8 -107 17 -217 20 -245 2 -27 7 -113 10 -190 4 -77 8 -151 10 -164 26
-169 26 -2411 0 -3246 -11 -334 -16 -473 -20 -530 -2 -33 -7 -100 -10 -150
-27 -416 -99 -808 -216 -1173 -51 -156 -188 -516 -195 -509 -2 2 17 64 41 138
199 590 295 1094 282 1483 -6 188 -21 252 -73 304 -31 31 -39 34 -77 29 -34
-5 -51 -15 -88 -55 -105 -114 -217 -389 -546 -1346 -84 -247 -183 -527 -218
-623 -69 -187 -185 -466 -192 -459 -2 2 50 139 116 305 466 1168 825 2629 966
3931 20 193 23 223 30 305 3 39 10 113 15 165 5 52 12 145 15 205 3 61 8 130
10 155 27 291 39 1198 20 1560 -2 47 -7 144 -10 215 -3 72 -8 155 -10 185 -3
30 -9 118 -15 195 -9 124 -22 259 -35 365 -58 479 -106 750 -200 1135 -99 403
-218 762 -379 1143 -46 108 -91 231 -101 272 -82 354 -203 696 -355 1001 -121
245 -244 443 -410 664 -390 518 -1094 1172 -1745 1621 -320 221 -511 316 -600
300 -20 -4 -44 -19 -61 -38 -46 -56 -26 -132 78 -287 172 -254 515 -598 963
-966 541 -443 728 -608 935 -821 399 -413 725 -877 996 -1419 90 -180 96 -197
120 -320 45 -236 99 -644 119 -900 3 -44 8 -93 10 -110 2 -16 7 -91 10 -165 4
-74 8 -148 10 -165 26 -216 26 -2195 0 -2490 -1 -16 -5 -118 -9 -225 -4 -107
-9 -206 -11 -220 -2 -14 -7 -99 -10 -190 -4 -91 -8 -178 -10 -195 -2 -16 -7
-88 -10 -160 -4 -71 -8 -141 -10 -155 -2 -14 -6 -65 -10 -115 -37 -521 -102
-815 -226 -1020 -70 -115 -313 -424 -325 -412 -8 7 -52 275 -63 382 -6 55 -13
120 -16 145 -10 79 -14 700 -5 840 11 177 19 293 25 355 2 28 7 86 10 130 7
102 32 392 44 515 6 52 12 124 15 160 3 36 10 115 16 175 6 61 13 139 15 175
3 36 8 83 10 105 7 56 24 280 31 394 3 53 7 110 9 126 3 17 7 107 11 200 4 94
8 177 10 185 1 8 3 42 4 75 2 40 12 -20 31 -185 16 -135 34 -263 41 -285 14
-44 47 -62 90 -52 49 13 50 25 49 562 -1 275 -3 529 -6 565 -2 36 -7 189 -11
340 -3 151 -7 286 -9 300 -1 14 -5 102 -9 195 -4 94 -9 184 -11 200 -2 17 -7
73 -10 125 -3 52 -8 109 -10 125 -2 17 -7 62 -10 100 -11 130 -55 368 -90 485
-80 267 -213 517 -401 750 -201 250 -585 599 -974 886 -650 480 -1307 834
-1813 978 -256 72 -439 98 -669 95 l-156 -3 -108 75 c-59 41 -123 88 -141 105
-58 55 -44 98 87 259 95 117 130 184 132 246 2 113 -72 162 -345 233 -33 8
-62 17 -65 20 -7 8 5 17 138 108 226 155 298 261 241 354 -24 40 -87 90 -178
143 -39 22 -88 57 -109 76 -33 31 -36 39 -31 71 13 81 103 165 248 233 46 22
181 69 299 106 236 73 243 76 283 113 20 20 27 35 27 65 0 97 -105 136 -694
258 -193 39 -335 78 -366 99 -23 16 24 50 155 114 142 69 302 127 451 165 181
45 274 59 572 86 29 3 195 7 370 10 707 12 826 20 920 66 63 32 90 83 73 141
-26 84 -168 175 -389 248 -235 77 -489 116 -772 119 -190 1 -317 -13 -435 -50
-72 -22 -189 -77 -237 -111 -36 -25 -36 -11 -3 61 81 173 359 309 735 357 158
20 547 12 715 -15z m-1910 -188 l30 -10 -40 -17 c-86 -37 -289 -79 -435 -90
-227 -18 -256 -17 -333 9 -41 13 -100 28 -133 31 -54 7 -57 8 -29 16 66 19
317 57 415 64 58 4 107 8 109 11 10 8 387 -5 416 -14z m-1230 -163 c-3 -5 5
-20 17 -35 29 -33 124 -51 328 -60 137 -7 147 -9 190 -36 58 -38 94 -68 88
-75 -12 -11 -133 -23 -298 -29 -96 -3 -202 -8 -235 -10 -33 -2 -103 -7 -155
-10 -52 -3 -111 -8 -130 -10 -19 -2 -60 -7 -90 -10 -157 -17 -377 -65 -487
-107 -167 -62 -219 -151 -126 -214 46 -31 50 -31 476 -50 75 -3 139 -10 142
-14 6 -9 -232 -129 -437 -219 -214 -94 -401 -190 -471 -242 -148 -109 -134
-228 33 -280 90 -28 388 -58 583 -59 l78 0 -60 -55 c-75 -70 -100 -126 -82
-185 21 -69 95 -110 232 -126 l56 -6 -71 -72 c-126 -127 -214 -316 -223 -482
-4 -59 -1 -104 7 -128 27 -84 102 -134 235 -157 39 -6 71 -13 73 -14 7 -7 -34
-75 -103 -170 -90 -124 -116 -175 -117 -227 -1 -85 49 -118 243 -159 189 -41
286 -72 337 -109 64 -46 58 -74 -56 -265 -156 -263 -252 -502 -307 -764 -36
-173 -29 -275 22 -323 21 -19 35 -23 86 -22 52 1 80 9 174 52 124 57 238 91
254 75 16 -16 -27 -109 -106 -228 -86 -129 -267 -357 -641 -805 -486 -583
-723 -886 -916 -1170 -459 -676 -644 -1200 -684 -1939 -6 -120 -9 -130 -85
-359 -184 -548 -241 -811 -243 -1112 -1 -85 2 -193 6 -240 24 -274 124 -786
269 -1365 286 -1142 590 -1914 947 -2405 266 -365 574 -635 997 -875 158 -90
213 -115 254 -115 44 0 81 33 81 72 0 64 -28 101 -340 452 -343 387 -587 692
-757 946 -406 608 -657 1341 -718 2095 -7 95 -11 333 -4 339 2 3 33 -81 68
-187 203 -615 363 -986 547 -1273 60 -92 78 -129 81 -164 7 -66 88 -399 124
-504 70 -206 165 -362 305 -499 181 -180 486 -365 725 -442 65 -21 105 -27
175 -28 84 -1 97 2 157 31 193 95 248 389 95 505 -18 14 -98 53 -177 87 -355
151 -627 316 -896 542 -49 42 -101 88 -115 103 -22 25 -18 24 35 -11 150 -96
473 -266 569 -300 87 -31 146 -7 146 60 0 37 -15 58 -163 222 -199 221 -261
332 -480 876 -227 561 -362 863 -502 1118 -132 242 -155 317 -156 500 0 176
50 419 99 480 l17 21 102 -40 c111 -44 358 -118 493 -147 117 -26 326 -26 435
0 322 74 594 312 521 454 -26 49 -68 67 -161 66 -89 0 -120 -9 -324 -91 -175
-70 -264 -93 -386 -98 -127 -5 -221 11 -450 75 -262 73 -313 69 -361 -30 -29
-60 -47 -70 -121 -70 -144 0 -280 56 -338 138 -26 38 -30 54 -33 122 -4 67 0
87 21 133 48 105 149 176 310 217 87 22 302 46 482 55 671 31 908 82 908 195
0 35 -34 76 -79 95 -79 33 -312 69 -524 80 -311 18 -475 65 -543 157 -52 71
-69 154 -68 331 0 77 3 158 6 180 17 131 47 345 59 432 44 293 41 394 -12 435
-49 39 -105 18 -172 -66 -68 -85 -192 -302 -329 -574 -211 -421 -289 -635
-339 -935 l-27 -160 -3 161 -2 162 61 163 c233 625 518 1237 777 1669 600 999
1334 1557 2284 1739 204 39 356 53 568 54 301 0 473 -34 685 -137 154 -75 270
-161 415 -306 286 -286 576 -724 987 -1490 l110 -205 7 -226 c4 -125 9 -237
12 -250 2 -13 5 -82 6 -154 2 -154 -10 -194 -77 -253 -94 -83 -237 -134 -704
-253 -352 -90 -457 -122 -577 -179 -163 -76 -234 -145 -234 -227 0 -62 36 -97
116 -113 131 -27 349 7 1099 174 237 52 343 69 378 61 66 -17 56 -179 -22
-395 -63 -172 -157 -288 -266 -329 -152 -57 -299 -53 -693 20 -272 50 -367 46
-420 -18 -19 -23 -23 -37 -19 -81 3 -45 9 -59 43 -93 148 -153 753 -268 1119
-213 249 38 398 127 582 347 40 48 73 82 73 74 0 -7 -9 -77 -20 -154 -10 -77
-24 -180 -30 -229 -6 -49 -12 -105 -15 -124 -2 -19 -6 -55 -9 -80 -20 -165
-51 -537 -66 -785 -9 -151 -5 -1068 5 -1150 3 -27 13 -120 21 -205 41 -425
127 -796 260 -1127 l34 -85 -32 -65 c-26 -53 -56 -87 -172 -197 -210 -199
-278 -256 -366 -308 l-80 -47 90 106 c277 327 384 594 350 879 -38 318 -209
562 -451 644 -55 19 -84 22 -213 21 -171 -1 -228 -12 -386 -77 -58 -23 -161
-65 -230 -93 -269 -111 -552 -191 -999 -285 l-254 -53 -81 17 c-190 42 -300
54 -466 54 -144 -1 -177 -4 -261 -26 -102 -28 -235 -86 -261 -115 -30 -33 -32
-67 -5 -99 30 -34 58 -35 189 -4 55 13 126 23 173 23 99 0 126 -12 290 -136
241 -182 498 -267 805 -267 186 0 344 40 535 136 122 60 220 128 430 295 77
61 250 184 385 274 135 89 257 173 271 187 24 23 29 23 62 12 90 -31 197 -134
252 -244 54 -107 76 -193 82 -316 14 -284 -94 -501 -428 -862 -207 -223 -219
-238 -219 -278 l0 -35 -132 -63 c-588 -279 -1172 -360 -1478 -206 -111 56
-200 121 -220 161 -26 51 -77 99 -128 122 -24 10 -67 36 -95 57 -81 61 -274
129 -368 130 -51 0 -89 -32 -89 -75 0 -42 46 -82 137 -121 35 -15 63 -30 63
-33 0 -4 -12 -14 -27 -23 -46 -27 -119 -106 -149 -161 -23 -43 -28 -64 -28
-122 -1 -147 96 -272 240 -309 l46 -12 -203 -136 c-112 -75 -260 -176 -329
-223 -144 -100 -207 -137 -378 -226 -202 -105 -257 -156 -257 -239 0 -60 36
-110 116 -158 120 -73 253 -105 429 -106 261 -1 423 55 1155 399 405 190 646
311 785 395 183 110 210 130 560 413 91 73 255 187 271 187 5 0 9 -10 9 -23 0
-42 40 -178 71 -238 34 -68 89 -134 131 -155 l28 -15 -48 -72 c-27 -40 -121
-185 -210 -324 -339 -533 -386 -574 -1137 -998 -358 -202 -440 -253 -486 -299
-49 -48 -41 -108 16 -135 26 -13 40 -12 114 3 297 61 780 317 1140 603 211
169 536 527 691 764 96 145 151 303 166 469 6 68 11 88 28 102 12 9 23 17 26
18 3 0 5 -26 5 -58 0 -110 98 -262 179 -278 l36 -6 0 -82 c0 -146 -36 -412
-101 -743 -32 -165 -23 -146 -171 -373 -148 -226 -393 -440 -743 -649 -71 -43
-208 -122 -302 -176 -200 -114 -243 -148 -243 -194 0 -48 33 -74 84 -69 58 7
279 104 621 273 332 164 447 235 561 349 122 122 192 259 254 499 16 65 34
127 40 137 9 17 61 60 73 60 3 0 15 -20 27 -45 29 -59 108 -129 176 -154 30
-12 61 -21 69 -21 9 0 15 -9 15 -23 0 -43 -42 -252 -80 -402 -68 -267 -135
-439 -214 -548 -94 -132 -341 -344 -481 -414 -23 -12 -73 -23 -115 -27 -102
-9 -301 -51 -440 -92 -201 -61 -290 -117 -290 -185 0 -71 50 -103 157 -101
124 2 293 59 563 189 l155 75 170 -6 c94 -3 260 -12 370 -20 110 -8 292 -18
405 -22 113 -3 216 -8 230 -9 14 -2 40 -4 58 -4 l33 -1 -25 -33 c-34 -44 -56
-109 -56 -164 0 -55 31 -146 70 -200 16 -23 26 -44 22 -47 -4 -2 -74 -7 -157
-10 -82 -4 -170 -9 -195 -11 -25 -3 -121 -9 -215 -15 -316 -19 -432 -36 -467
-67 -26 -23 -23 -75 5 -101 23 -22 124 -43 267 -57 36 -3 128 -13 205 -21 213
-22 524 -29 639 -15 180 23 306 69 402 147 59 48 64 49 264 59 69 3 150 8 180
10 30 3 91 7 135 9 44 3 126 8 183 12 80 5 102 4 102 -6 0 -23 111 -291 155
-377 103 -199 195 -263 267 -186 36 39 31 187 -16 412 -20 96 -36 178 -36 181
0 4 48 11 108 14 59 4 125 9 147 11 22 3 81 7 130 10 50 3 108 8 130 10 22 3
101 9 175 15 266 21 1075 97 1324 125 l130 14 220 -176 c273 -219 379 -313
436 -389 55 -74 67 -84 101 -84 61 0 77 61 34 133 -19 34 -225 545 -225 561 0
7 62 15 165 21 55 4 111 8 124 10 73 12 463 16 591 6 334 -26 744 -67 961 -96
97 -13 233 -29 303 -36 122 -12 128 -12 154 8 19 14 28 31 30 56 3 30 -2 39
-30 60 -18 13 -55 34 -81 47 -26 12 -46 24 -44 26 2 2 44 -7 95 -21 125 -33
329 -79 437 -99 227 -40 317 -21 317 67 0 45 -17 69 -84 119 -195 147 -659
286 -959 288 l-46 0 23 46 c81 160 9 325 -337 770 -163 210 -274 337 -400 459
-134 130 -188 170 -399 300 -259 159 -354 238 -484 399 -163 203 -336 480
-616 986 -305 554 -417 727 -491 765 -90 47 -160 -19 -145 -139 22 -168 124
-368 491 -956 196 -313 351 -578 472 -805 67 -125 283 -561 283 -571 0 -2 44
-93 98 -202 248 -498 411 -727 662 -932 l65 -53 -40 7 c-77 14 -281 87 -390
141 -320 156 -546 359 -674 605 -25 46 -77 162 -117 258 -122 292 -177 368
-397 555 -244 208 -328 320 -407 542 -122 346 -185 896 -185 1620 0 494 21
758 101 1244 25 153 26 154 6 180 -43 59 -100 32 -131 -61 -78 -239 -279
-1233 -331 -1638 -6 -47 -13 -96 -15 -110 -6 -41 -34 -299 -40 -370 -2 -36 -7
-94 -10 -130 -12 -151 -14 -444 -5 -589 26 -391 98 -668 253 -978 100 -198
186 -332 427 -663 233 -318 331 -471 452 -700 46 -87 135 -277 140 -300 4 -14
1 -15 -167 -30 -71 -7 -133 -14 -136 -16 -10 -6 -300 249 -431 378 -540 534
-806 1082 -877 1808 -6 58 -13 138 -16 179 -6 89 -7 762 -1 782 2 8 7 91 11
184 3 94 8 186 10 205 2 19 7 76 10 125 7 121 29 410 41 545 3 36 38 175 80
315 189 639 308 1152 365 1575 29 217 37 606 15 748 -25 164 -65 232 -136 232
-107 0 -163 -189 -250 -840 -48 -363 -139 -1206 -165 -1530 -3 -36 -8 -87 -10
-115 -3 -27 -7 -75 -9 -105 -3 -30 -8 -86 -12 -125 -7 -75 -98 -358 -459
-1420 -278 -820 -400 -1239 -484 -1660 -22 -110 -47 -256 -55 -325 -8 -69 -17
-147 -21 -175 -11 -90 -13 -497 -4 -620 5 -66 16 -173 24 -239 9 -65 14 -121
11 -123 -2 -3 -30 -5 -62 -6 l-58 -2 -33 110 c-41 137 -90 379 -102 505 -12
135 -5 306 19 443 38 219 105 424 380 1167 271 731 443 1319 525 1794 24 136
53 343 60 426 3 41 8 82 10 90 2 8 7 60 10 115 4 55 10 154 15 220 9 123 6
1340 -4 1430 -5 50 -10 180 -22 515 -3 96 -7 200 -9 230 -5 70 -5 995 -1 1035
2 17 7 86 11 155 3 69 8 134 10 145 2 11 6 43 9 70 60 565 210 940 513 1281
78 87 214 208 348 309 102 77 382 267 432 293 33 18 97 14 213 -12 515 -118
946 -380 1299 -791 190 -220 369 -490 746 -1125 318 -535 425 -691 585 -851
99 -99 202 -169 310 -210 30 -12 132 -36 225 -55 224 -45 298 -80 426 -201
151 -144 269 -317 338 -497 29 -76 35 -105 35 -172 1 -117 -37 -189 -190 -359
-64 -72 -161 -185 -216 -251 l-100 -122 -77 -4 c-86 -5 -159 -33 -245 -95 -28
-20 -195 -179 -371 -353 -433 -427 -654 -628 -920 -835 -262 -204 -448 -316
-865 -522 -401 -198 -471 -242 -501 -314 -16 -40 3 -83 43 -100 66 -27 235 33
574 205 649 327 1160 659 1623 1052 167 143 508 485 656 659 65 77 120 142
121 144 10 13 114 -67 200 -153 250 -250 588 -774 1029 -1591 71 -132 342
-676 425 -855 643 -1378 1105 -2829 1210 -3800 15 -137 20 -462 9 -570 -49
-479 -250 -818 -599 -1010 -382 -210 -1381 -409 -2285 -455 -60 -4 -127 -8
-147 -10 -20 -2 -159 -7 -310 -10 -150 -3 -304 -8 -343 -10 -38 -2 -419 -5
-845 -6 -790 -2 -941 -6 -1101 -34 -50 -9 -92 -15 -94 -13 -1 2 -38 57 -82
123 -121 182 -170 267 -204 353 -65 165 -94 177 -599 247 -988 138 -1607 323
-2545 761 -190 89 -581 284 -1545 771 -682 345 -1052 517 -1501 699 -678 274
-1345 476 -1764 534 -44 6 -93 13 -110 16 -16 3 -131 7 -255 9 -244 4 -381 -6
-641 -50 -499 -84 -1281 -320 -2398 -725 -139 -50 -261 -94 -270 -97 -9 -4 5
13 31 36 77 69 86 140 25 198 -128 123 -640 246 -1132 273 -140 8 -566 5 -680
-5 -27 -2 -90 -7 -140 -10 -151 -10 -238 -16 -275 -20 -19 -2 -89 -9 -155 -15
-335 -30 -823 -93 -1215 -156 -587 -95 -1105 -208 -1800 -396 -247 -66 -290
-70 -337 -27 -159 149 -108 629 153 1421 l65 197 91 83 c234 213 640 668 914
1023 173 224 550 766 570 820 4 8 9 15 13 15 4 0 29 -48 56 -107 261 -574 679
-1109 1187 -1519 157 -127 219 -184 213 -195 -17 -26 -193 -63 -625 -129 -329
-51 -545 -90 -865 -159 -152 -32 -180 -36 -300 -46 -299 -24 -639 -117 -900
-245 -130 -64 -175 -101 -175 -143 0 -38 7 -50 38 -66 31 -16 42 -13 352 89
297 99 469 150 710 211 l165 41 870 3 c479 2 888 5 910 8 22 3 113 8 203 12
90 4 173 8 185 10 12 2 76 6 142 9 110 6 160 10 270 21 161 17 231 17 244 1
20 -24 64 -20 90 8 18 19 36 25 99 30 42 4 91 9 107 11 17 2 91 11 165 20
1205 141 1880 382 2139 764 224 330 169 703 -209 1411 -51 96 -153 290 -228
430 -320 605 -382 700 -461 700 -56 0 -81 -40 -82 -137 l-1 -68 -18 40 c-47
103 -453 1046 -543 1260 -132 317 -251 630 -322 844 l-57 174 17 171 c10 100
18 266 18 401 2 427 -43 600 -155 597 -161 -4 -181 -538 -41 -1076 l26 -99
-18 -101 c-25 -144 -56 -288 -122 -555 -47 -190 -59 -229 -65 -205 -4 16 -26
178 -49 359 -61 502 -91 657 -153 790 -62 135 -134 190 -248 189 -56 0 -78 -6
-141 -37 -194 -96 -490 -390 -870 -862 -133 -166 -143 -177 -134 -155 252 627
376 1007 577 1760 180 676 249 812 468 930 308 166 505 354 723 690 219 337
439 798 989 2075 354 823 544 1226 699 1488 66 111 198 265 332 387 170 156
169 155 169 188 0 47 -30 76 -78 75 -104 -2 -246 -139 -451 -438 -45 -66 -127
-185 -182 -265 -254 -367 -610 -1015 -909 -1655 -156 -333 -302 -629 -335
-680 l-26 -40 5 175 c12 385 118 1084 246 1625 39 164 169 447 383 830 299
538 581 937 916 1300 125 135 145 172 113 214 -17 23 -26 26 -78 25 -47 0 -75
-8 -135 -37 -385 -186 -757 -675 -1036 -1362 -59 -144 -183 -518 -223 -670
-18 -68 -69 -206 -116 -319 -175 -412 -302 -777 -743 -2121 -83 -253 -162
-482 -175 -510 l-24 -50 -2 95 c-2 187 1 827 5 920 2 52 6 250 10 440 3 190 8
388 10 440 3 52 7 167 10 255 5 156 10 257 20 400 27 406 27 407 105 636 236
700 583 1399 956 1929 223 318 496 611 781 840 193 156 223 186 223 232 0 51
-32 73 -96 65 -123 -13 -622 -308 -899 -531 -426 -343 -726 -780 -905 -1316
-111 -332 -196 -763 -246 -1245 -10 -101 -26 -197 -45 -260 -114 -404 -206
-892 -244 -1300 -4 -38 -8 -81 -10 -95 -2 -14 -7 -65 -10 -115 -4 -49 -8 -97
-10 -105 -2 -8 -7 -82 -11 -165 -3 -82 -8 -157 -10 -165 -1 -8 -3 -55 -4 -105
-2 -118 -13 -88 -34 90 -27 224 -41 378 -51 570 -3 61 -8 139 -11 175 -6 84
-6 793 0 845 3 22 8 94 11 160 8 163 25 366 45 535 5 41 12 98 15 125 73 620
234 1312 432 1860 518 1437 1477 2613 2773 3402 285 173 673 361 900 435 18 6
32 0 25 -12z m5559 -1495 c175 -262 367 -656 630 -1290 28 -67 3 -29 -147 220
-345 576 -539 950 -606 1169 -12 37 -21 71 -21 75 1 14 90 -93 144 -174z
m-1829 -456 c183 -146 365 -311 545 -495 187 -191 180 -186 -175 137 -154 140
-337 305 -407 368 -71 62 -128 116 -128 119 0 3 8 -2 18 -10 9 -8 76 -62 147
-119z m-732 -395 c347 -175 959 -642 1429 -1091 621 -594 974 -1091 1218
-1715 21 -54 37 -98 35 -98 -2 0 -20 28 -41 63 -135 224 -366 543 -545 752
-131 152 -425 447 -594 594 -71 63 -265 225 -430 360 -380 311 -505 421 -685
601 -208 208 -392 427 -446 532 -18 35 -8 35 59 2z m-5180 -856 c-184 -177
-401 -433 -559 -658 -273 -389 -561 -926 -768 -1431 -30 -73 -55 -130 -56
-125 0 4 12 71 26 148 95 519 247 923 475 1263 208 310 445 540 814 787 71 48
133 88 136 88 4 0 -27 -33 -68 -72z m4125 -339 c459 -49 994 -268 1627 -663
379 -236 734 -499 1047 -773 l117 -103 -16 -37 c-13 -29 -17 -74 -19 -183 -3
-209 17 -405 93 -920 14 -96 26 -188 26 -205 1 -35 -55 -416 -60 -412 -1 2
-12 68 -22 148 -99 730 -243 1213 -468 1570 -268 428 -623 659 -1258 818 -44
11 -260 56 -480 100 -404 81 -504 107 -596 157 -103 57 -133 113 -164 308 -11
69 -24 116 -44 153 l-29 53 74 0 c41 0 118 -5 172 -11z m-376 -47 c46 -50 64
-103 83 -232 26 -183 93 -279 249 -355 107 -52 208 -79 576 -151 516 -101 699
-148 930 -241 393 -157 659 -410 851 -808 82 -171 128 -293 185 -493 80 -283
155 -704 189 -1067 4 -38 8 -81 11 -95 2 -14 9 -101 15 -195 l11 -170 -81
-440 c-113 -607 -125 -673 -191 -1061 l-58 -342 -144 -173 c-173 -209 -247
-278 -348 -326 -114 -54 -224 -73 -420 -74 -201 0 -336 17 -544 68 -111 28
-253 90 -245 108 6 13 82 7 209 -17 249 -47 343 -59 475 -65 228 -9 367 30
487 137 144 128 261 419 262 650 1 93 -2 110 -22 145 -54 91 -138 112 -313 79
-46 -8 -205 -42 -354 -75 -498 -111 -676 -143 -853 -152 -34 -2 -65 0 -68 4
-7 12 47 46 148 94 102 48 262 96 578 175 494 123 666 194 764 313 78 95 93
183 77 438 -6 96 -13 262 -16 370 -4 173 -7 205 -29 275 -14 43 -63 212 -110
374 -212 741 -391 1087 -756 1464 -276 284 -578 510 -1105 825 -594 355 -668
403 -780 516 -189 191 -167 355 62 465 63 30 187 68 224 69 9 1 32 -16 51 -37z
m5505 -827 l218 -330 52 -160 c28 -88 94 -293 146 -456 82 -252 267 -843 267
-852 0 -2 -16 -1 -35 1 -25 3 -42 -1 -55 -13 -23 -21 -17 -33 -65 135 -122
427 -331 983 -525 1395 -29 61 -78 182 -110 270 -32 88 -75 205 -95 260 -20
55 -32 96 -27 90 5 -5 108 -158 229 -340z m-8629 143 c-218 -256 -502 -659
-672 -955 -49 -85 -63 -103 -46 -58 17 44 169 344 212 418 91 157 212 325 319
441 55 60 217 206 228 206 2 0 -17 -24 -41 -52z m9227 -1033 c561 -827 982
-1349 2055 -2550 322 -361 628 -705 719 -810 14 -16 -34 27 -107 95 -388 363
-630 573 -1037 903 -696 564 -860 708 -1077 940 -253 272 -268 290 -285 354
-35 138 -318 1056 -369 1198 -11 32 6 10 101 -130z m-2815 -45 c6 -41 14 -86
16 -100 9 -48 13 -395 5 -380 -11 18 -38 299 -46 465 -7 133 5 140 25 15z
m271 -162 c296 -393 395 -715 438 -1423 6 -93 13 -204 16 -245 5 -88 13 -286
19 -525 l5 -170 -33 240 c-18 132 -39 269 -45 305 -19 100 -67 136 -121 92
-28 -22 -28 -35 -15 -342 17 -376 11 -1201 -10 -1440 -3 -30 -12 -149 -21
-265 -12 -175 -43 -526 -70 -800 -3 -33 -18 -199 -34 -370 l-29 -310 5 245 c3
135 9 398 15 585 9 314 6 1131 -5 1235 -2 25 -7 99 -11 165 -3 66 -7 140 -10
165 -2 25 -7 70 -9 100 -16 164 -37 378 -41 404 -3 17 -12 87 -20 156 -28 222
-73 524 -160 1060 l-35 215 27 225 c20 178 26 276 27 470 0 135 -3 276 -7 314
l-8 70 22 -20 c12 -10 61 -72 110 -136z m-216 -1474 c84 -542 126 -852 155
-1159 28 -296 29 -306 35 -445 3 -69 8 -150 11 -180 4 -54 4 -1120 -1 -1230
-26 -633 -26 -1684 -1 -1840 3 -14 7 -56 11 -95 22 -249 113 -632 172 -723 14
-23 10 -29 -263 -302 -152 -154 -281 -277 -284 -275 -4 3 -13 25 -19 51 -10
40 -8 61 14 162 48 212 116 668 140 932 3 36 10 108 15 160 5 52 14 165 20
250 6 85 13 178 16 205 9 95 12 1220 4 1370 -20 323 -43 540 -80 730 -5 28
-12 363 -14 750 -3 385 -7 718 -9 740 -3 22 -8 105 -11 185 -4 80 -9 182 -12
227 -6 69 0 123 36 337 24 141 45 255 46 253 2 -2 10 -48 19 -103z m-6150
-741 c-4 -32 -20 -150 -37 -263 -45 -314 -57 -443 -54 -585 5 -202 45 -319
137 -406 103 -98 266 -145 564 -164 113 -7 137 -9 288 -26 59 -7 104 -15 100
-20 -16 -15 -272 -42 -518 -54 -191 -10 -299 -16 -335 -20 -19 -2 -64 -7 -100
-10 -149 -15 -303 -56 -402 -107 -73 -38 -171 -141 -204 -212 -73 -160 -47
-336 66 -446 94 -91 233 -141 398 -141 50 0 92 -2 92 -3 0 -2 -9 -29 -20 -61
-52 -150 -81 -434 -59 -570 15 -97 56 -206 125 -337 226 -432 270 -530 555
-1231 194 -476 260 -601 434 -814 32 -40 29 -40 -32 -7 -187 103 -261 148
-442 269 -112 75 -217 139 -233 142 -32 6 -54 34 -138 176 -162 276 -282 563
-487 1172 -129 383 -147 418 -220 418 -27 0 -42 -7 -59 -26 -38 -44 -48 -122
-48 -357 3 -825 276 -1699 757 -2420 161 -241 444 -593 775 -965 88 -99 159
-181 157 -183 -5 -5 -235 138 -330 206 -183 131 -389 326 -531 502 -429 530
-787 1441 -1099 2795 -201 875 -236 1230 -159 1639 29 154 141 549 154 541 4
-2 7 -32 8 -67 5 -176 40 -588 77 -894 20 -177 25 -200 45 -216 31 -25 65 -22
89 8 19 24 20 40 20 403 0 207 3 404 5 437 3 32 8 109 11 169 25 489 98 743
370 1285 103 206 268 500 281 500 3 0 2 -26 -1 -57z m5952 -813 l6 -553 -24 6
c-66 18 -96 18 -147 -1 -28 -11 -52 -17 -52 -13 0 23 175 1008 196 1100 3 13
7 21 10 19 2 -3 7 -254 11 -558z m-55 -687 c9 -10 24 -36 33 -58 15 -35 16
-67 10 -265 -3 -124 -8 -252 -10 -285 -2 -33 -7 -114 -10 -180 -3 -66 -7 -145
-10 -175 -2 -30 -7 -100 -10 -155 -3 -55 -8 -120 -10 -145 -3 -25 -9 -101 -15
-170 -15 -188 -61 -665 -75 -775 -42 -353 -63 -694 -60 -990 3 -271 16 -413
55 -605 19 -93 20 -111 9 -158 -7 -29 -16 -55 -20 -58 -9 -5 -87 231 -124 375
-38 151 -73 344 -95 526 -19 157 -24 215 -40 465 -8 115 -4 927 4 995 2 17 6
89 10 160 4 72 9 148 11 170 2 22 7 72 10 110 7 85 34 347 40 395 2 19 9 73
15 120 6 47 27 204 47 349 41 291 41 291 122 342 51 33 91 37 113 12z m-4317
-743 c3 -5 -16 -32 -44 -60 -135 -135 -336 -213 -551 -214 -131 0 -207 14
-435 80 -134 38 -366 123 -340 124 6 0 82 -21 170 -46 213 -60 330 -78 470
-70 139 7 241 32 403 97 195 80 313 112 327 89z m-1392 -67 c-7 -2 -19 -2 -25
0 -7 3 -2 5 12 5 14 0 19 -2 13 -5z m5862 -808 c-2 -291 -6 -541 -8 -555 -3
-14 -8 -85 -12 -159 -4 -74 -8 -144 -10 -155 -2 -12 -6 -61 -10 -111 -3 -49
-13 -153 -21 -230 -8 -77 -17 -165 -20 -195 -8 -79 -52 -393 -66 -470 l-12
-65 -8 65 c-4 36 -10 162 -12 280 -3 196 0 303 18 543 6 78 9 107 21 222 3 28
14 140 25 250 11 110 27 265 35 345 9 80 18 172 20 205 3 33 8 85 10 115 26
297 35 413 36 455 1 44 2 46 9 20 4 -16 6 -268 5 -560z m-7817 -580 c-1 -123
-2 -146 -8 -100 -9 63 -13 224 -10 310 l3 50 7 -50 c5 -27 8 -122 8 -210z
m11067 -200 c7 -373 -50 -756 -202 -1369 -31 -127 -59 -224 -61 -218 -3 10 25
315 43 472 9 81 26 228 30 265 49 453 100 805 152 1045 15 70 17 73 25 45 6
-16 11 -124 13 -240z m-11687 -130 c82 -68 134 -283 197 -815 14 -118 43 -339
65 -490 21 -151 37 -277 35 -280 -8 -13 -75 -354 -104 -527 -29 -173 -64 -435
-76 -578 -3 -38 -8 -88 -10 -110 -2 -22 -7 -87 -10 -145 -3 -58 -8 -118 -10
-135 -2 -16 -7 -120 -10 -230 -4 -110 -9 -220 -11 -245 -1 -25 -6 -360 -9
-745 -5 -516 -10 -725 -20 -795 -23 -153 -35 -286 -39 -425 l-5 -130 -68 -6
c-37 -4 -111 -10 -163 -13 -52 -4 -108 -9 -125 -11 -16 -2 -86 -7 -155 -11
-69 -3 -136 -8 -150 -9 -14 -2 -101 -6 -195 -10 -93 -3 -190 -8 -215 -10 -87
-8 -994 -7 -975 0 9 4 133 24 535 86 265 41 385 78 440 134 46 47 47 102 2
167 -30 43 -63 73 -317 283 -462 382 -870 935 -1121 1518 l-34 78 128 212
c317 523 668 1171 904 1673 58 122 85 165 204 320 363 472 630 789 845 1000
259 253 383 319 467 249z m691 -647 c42 -140 247 -653 446 -1113 335 -775 441
-1022 580 -1355 83 -201 171 -423 195 -495 124 -375 281 -754 321 -776 31 -16
70 -7 92 22 l19 27 -27 83 c-15 46 -95 252 -177 458 -179 446 -231 618 -334
1101 -5 24 -5 24 9 5 18 -26 107 -188 192 -350 38 -71 95 -179 128 -240 398
-741 489 -959 503 -1214 33 -566 -582 -903 -1976 -1081 -91 -12 -178 -23 -195
-25 -16 -2 -75 -9 -130 -15 -55 -6 -115 -13 -133 -15 l-34 -5 6 43 c4 25 8
176 11 337 l5 293 100 500 c213 1059 253 1421 227 2045 -4 106 -10 198 -12
205 -2 7 -6 48 -10 92 -6 91 -28 279 -49 435 l-14 105 108 445 c60 245 112
464 116 488 4 23 10 42 14 42 4 0 12 -19 19 -42z m6230 -325 c-79 -54 -225
-162 -324 -239 -260 -204 -354 -261 -529 -323 -271 -96 -573 -75 -853 59 -109
51 -131 68 -60 43 66 -23 253 -12 395 24 108 28 117 29 190 17 102 -17 234
-10 335 17 228 61 564 227 862 426 60 40 114 73 120 73 5 0 -56 -44 -136 -97z
m-564 -153 c-3 -5 -12 -10 -18 -10 -7 0 -6 4 3 10 19 12 23 12 15 0z m-35 -14
c0 -6 -182 -77 -186 -73 -4 3 162 74 179 76 4 1 7 -1 7 -3z m9494 -29 c-354
-404 -643 -677 -1019 -959 -137 -103 -315 -225 -285 -196 8 8 57 50 108 93
189 158 415 368 747 695 265 261 353 342 400 367 65 35 79 35 49 0z m-10792
-79 l78 -10 -20 -26 c-26 -33 -25 -72 2 -108 25 -32 25 -32 -84 54 -43 33 -91
69 -108 78 -58 35 -40 36 132 12z m-1945 -395 c258 -206 498 -347 830 -492
124 -54 182 -84 196 -103 46 -62 1 -210 -78 -255 -56 -32 -149 -31 -254 2
-168 53 -446 216 -606 354 -180 156 -285 334 -363 617 -52 186 -57 181 67 61
61 -58 154 -141 208 -184z m-5339 -85 c-97 -136 -436 -578 -444 -578 -2 0 8
24 22 53 62 121 209 316 358 474 43 46 80 83 83 83 2 0 -6 -15 -19 -32z
m10611 -132 c46 -126 41 -126 -22 -1 -34 67 -43 93 -35 102 6 8 12 12 14 10 1
-1 21 -51 43 -111z m-7984 -286 c4 -47 10 -132 14 -190 12 -159 13 -578 1
-730 -20 -259 -61 -545 -140 -970 -43 -228 -61 -294 -55 -200 2 30 7 233 10
450 4 217 8 411 10 430 2 19 6 103 10 185 6 145 10 218 20 335 3 30 8 87 11
125 10 123 43 375 71 549 30 183 35 184 48 16z m-2311 18 c-153 -305 -643
-1158 -665 -1158 -3 0 -19 39 -36 88 l-30 87 65 95 c177 255 689 960 698 960
2 0 -12 -33 -32 -72z m13870 -338 c3 -201 8 -392 11 -425 3 -33 10 -116 16
-185 45 -557 142 -941 297 -1175 62 -92 150 -185 304 -317 221 -190 260 -243
373 -523 159 -390 303 -576 605 -780 279 -188 592 -299 947 -335 82 -9 121
-19 205 -54 57 -23 132 -53 168 -65 55 -18 79 -35 150 -103 62 -60 78 -80 60
-75 -35 8 -313 43 -505 62 -488 49 -575 54 -875 50 -162 -2 -306 -6 -320 -8
-14 -3 -70 -8 -125 -11 -55 -4 -119 -9 -141 -12 l-42 -6 -28 64 c-65 146 -199
408 -269 523 -88 147 -143 228 -320 470 -250 343 -337 478 -436 675 -137 272
-199 503 -234 869 -7 77 -8 494 -1 577 3 32 10 118 16 189 18 222 56 507 116
863 9 56 18 101 19 100 1 -2 5 -167 9 -368z m477 -197 c46 -74 159 -271 259
-453 190 -347 379 -668 493 -840 230 -344 379 -491 699 -684 206 -125 294
-194 438 -342 239 -246 555 -660 641 -841 44 -92 42 -135 -7 -213 l-39 -62
-135 7 c-128 6 -138 8 -205 41 -108 54 -253 156 -344 241 -206 191 -350 417
-610 953 -200 413 -232 478 -310 625 -126 239 -288 515 -495 845 -188 300
-305 500 -366 625 -86 177 -94 215 -19 98z m-7374 -30 c57 -30 63 -41 63 -123
0 -129 -129 -272 -230 -253 -38 7 -88 49 -112 96 -51 101 -1 199 145 283 54
30 70 30 134 -3z m6138 -205 c-4 -73 -8 -143 -10 -156 -17 -110 -25 -792 -12
-1042 32 -619 177 -1094 471 -1540 181 -274 346 -455 745 -817 24 -22 38 -40
30 -40 -22 0 -171 -14 -204 -18 -16 -3 -55 -7 -85 -10 -154 -14 -703 -65 -760
-70 -36 -3 -87 -8 -115 -10 -51 -5 -107 -10 -230 -20 -38 -3 -92 -8 -120 -10
-27 -2 -88 -7 -135 -10 -47 -4 -128 -10 -180 -14 -52 -4 -115 -7 -140 -7 l-45
1 -16 120 c-9 66 -19 161 -23 210 -8 100 -9 528 -2 590 3 22 10 90 17 150 17
169 73 460 133 699 104 409 170 617 629 1974 28 83 53 152 55 152 2 0 1 -60
-3 -132z m-14061 60 c4 -24 21 -90 37 -148 l31 -106 -129 -190 c-290 -425
-422 -634 -990 -1561 -25 -40 -46 -73 -49 -73 -10 0 238 596 366 880 87 192
265 543 349 688 116 199 353 551 372 552 4 0 9 -19 13 -42z m10151 -52 c63
-29 100 -72 120 -138 19 -66 19 -63 -10 -125 -28 -61 -48 -67 -87 -25 -49 52
-91 156 -104 258 -6 48 -4 54 12 54 11 0 42 -11 69 -24z m485 -379 c23 -53 41
-127 30 -127 -17 0 -72 127 -65 149 9 30 14 27 35 -22z m-10471 -86 l31 -84
-52 -81 c-206 -323 -472 -700 -672 -951 -185 -232 -491 -579 -452 -512 9 15
143 233 298 485 403 656 793 1252 808 1235 4 -4 21 -46 39 -92z m10072 -163
c-41 -123 -130 -259 -314 -480 -102 -124 -131 -151 -73 -70 19 26 101 153 183
282 178 281 217 340 222 335 1 -2 -6 -32 -18 -67z m799 -859 c15 -28 10 -31
-31 -18 -19 6 -41 13 -49 15 -13 5 -13 6 0 14 27 17 69 11 80 -11z m-22 -167
c64 -33 72 -73 10 -53 -35 12 -108 66 -108 81 0 11 52 -4 98 -28z m-1808 -102
c-68 -52 -456 -268 -465 -258 -2 2 56 36 128 76 73 40 182 101 242 136 116 68
136 78 95 46z m1173 -381 c-24 -41 -106 -123 -168 -169 -57 -42 -122 -82 -91
-56 83 68 221 196 242 223 31 41 41 43 17 2z m7713 -1220 c201 -19 430 -81
613 -165 46 -21 79 -40 73 -42 -25 -8 -415 84 -697 165 -88 25 -162 47 -164
49 -8 7 63 4 175 -7z m-6245 -170 c63 -33 -25 -309 -98 -309 -51 0 -141 160
-128 228 17 92 129 133 226 81z m187 -167 c27 -49 34 -90 21 -129 -9 -29 -13
-31 -65 -35 -31 -1 -57 -2 -59 0 -1 2 12 40 31 85 18 45 34 90 34 100 0 28 15
20 38 -21z m3886 -126 c31 -80 56 -147 56 -150 0 -3 -77 56 -170 132 -94 75
-165 138 -158 140 7 1 49 6 93 10 44 4 89 8 101 9 18 2 29 -16 78 -141z
m-2722 -286 c21 -102 36 -192 34 -200 -4 -18 -80 138 -135 275 l-39 100 36 6
c67 11 63 18 104 -181z m-1384 95 c-8 -8 -161 -34 -233 -40 -71 -6 -400 3
-393 11 2 1 50 5 108 9 58 3 128 8 155 10 28 2 115 7 195 11 80 3 147 8 149
10 5 4 24 -7 19 -11z m-9218 -858 c0 -1 -54 -51 -120 -111 -397 -359 -896
-1020 -1148 -1523 -41 -80 -49 -131 -28 -171 27 -52 67 -66 179 -66 89 1 113
-5 87 -21 -5 -3 -28 -38 -51 -78 -50 -85 -102 -224 -130 -350 -11 -50 -21 -93
-23 -95 -8 -7 -102 157 -127 222 -124 320 -71 878 120 1271 182 373 434 576
1061 851 154 68 180 78 180 71z m2290 -1311 c19 -2 85 -7 145 -10 128 -7 485
-40 665 -62 517 -61 1050 -154 1995 -345 1401 -285 1754 -350 2260 -419 194
-26 561 -67 676 -76 49 -4 92 -11 96 -17 3 -6 2 -8 -3 -5 -5 3 -115 9 -244 12
-129 4 -237 9 -240 11 -3 1 -76 6 -163 10 -87 3 -168 8 -180 10 -12 2 -65 6
-117 10 -101 7 -381 32 -440 40 -19 2 -80 9 -135 15 -55 7 -181 22 -280 36
-499 65 -877 127 -1970 319 -653 115 -1329 223 -1625 260 -181 23 -482 55
-555 61 -49 3 -101 8 -115 10 -120 18 -905 26 -1170 11 -154 -8 -394 -30 -585
-53 -143 -17 -622 -96 -718 -118 -34 -8 -63 -13 -65 -11 -6 6 88 45 206 86
332 114 872 202 1387 225 77 4 142 9 145 11 6 5 984 -5 1030 -11z m-10480
-347 c114 -2 207 -7 405 -24 110 -9 186 -17 183 -20 -2 -2 -57 -8 -123 -15
-66 -6 -259 -26 -430 -45 -625 -69 -831 -87 -1235 -111 -108 -7 -1090 -6
-1155 0 -16 2 -66 5 -110 6 l-80 3 105 12 c58 7 132 15 165 19 67 8 270 33
325 41 60 8 592 73 650 79 154 16 254 25 340 31 52 4 106 8 120 11 14 2 129 7
255 10 127 4 231 7 232 8 1 0 52 0 115 -1 62 -1 169 -3 238 -4z m21571 -479
c-43 -37 -179 -112 -194 -107 -18 6 93 112 149 140 45 24 50 24 62 9 11 -15 9
-20 -17 -42z m-5214 -106 c-3 -3 -12 -4 -19 -1 -8 3 -5 6 6 6 11 1 17 -2 13
-5z m-17488 -1514 c1504 0 2732 -2 2730 -4 -2 -2 -168 -7 -369 -10 -201 -4
-396 -8 -435 -11 -38 -3 -227 -7 -420 -10 -192 -4 -393 -8 -445 -10 -52 -2
-333 -7 -625 -11 -291 -4 -573 -8 -625 -9 -175 -4 -2154 -4 -2240 0 -47 2
-179 6 -295 10 -235 6 -289 9 -595 31 -118 9 -218 19 -222 22 -4 4 176 6 400
5 224 -2 1637 -3 3141 -3z"/>
</g>
</svg>
